<?xml version="1.0" encoding="UTF-8" standalone="no"?>
<!-- Created with Inkscape (http://www.inkscape.org/) -->

<svg
   xmlns:dc="http://purl.org/dc/elements/1.1/"
   xmlns:cc="http://creativecommons.org/ns#"
   xmlns:rdf="http://www.w3.org/1999/02/22-rdf-syntax-ns#"
   xmlns:svg="http://www.w3.org/2000/svg"
   xmlns="http://www.w3.org/2000/svg"
   xmlns:sodipodi="http://sodipodi.sourceforge.net/DTD/sodipodi-0.dtd"
   xmlns:inkscape="http://www.inkscape.org/namespaces/inkscape"
   width="210mm"
   height="297mm"
   viewBox="0 0 210 297"
   version="1.1"
   id="svg5830"
   inkscape:version="0.92.2 (5c3e80d, 2017-08-06)"
   sodipodi:docname="adidas.svg">
  <defs
     id="defs5824" />
  <sodipodi:namedview
     id="base"
     pagecolor="#ffffff"
     bordercolor="#666666"
     borderopacity="1.0"
     inkscape:pageopacity="0.0"
     inkscape:pageshadow="2"
     inkscape:zoom="0.35"
     inkscape:cx="400"
     inkscape:cy="560"
     inkscape:document-units="mm"
     inkscape:current-layer="layer1"
     showgrid="false"
     inkscape:window-width="1920"
     inkscape:window-height="1017"
     inkscape:window-x="-8"
     inkscape:window-y="-8"
     inkscape:window-maximized="1" />
  <metadata
     id="metadata5827">
    <rdf:RDF>
      <cc:Work
         rdf:about="">
        <dc:format>image/svg+xml</dc:format>
        <dc:type
           rdf:resource="http://purl.org/dc/dcmitype/StillImage" />
        <dc:title></dc:title>
      </cc:Work>
    </rdf:RDF>
  </metadata>
  <g
     inkscape:label="Layer 1"
     inkscape:groupmode="layer"
     id="layer1">
    <g
       transform="matrix(0.69419011,0,0,0.69419011,506.77768,376.42432)"
       style="opacity:1;fill:#d80000;fill-opacity:1;stroke:none"
       id="g5841">
      <path
         style="fill:#d80000;fill-opacity:1;stroke:none;stroke-width:0.26400754px;stroke-linecap:butt;stroke-linejoin:miter;stroke-opacity:1"
         d="m -578.74936,-421.30128 c -34.21239,35.39035 -32.07401,87.01278 -32.07401,87.01278 0,5.01226 0.31632,9.84528 0.87902,14.49109 h 61.88201 c 0.66824,-4.61737 1.1482,-9.4467 1.38699,-14.49109 0.71216,2.02477 0.53468,-52.95289 -32.07401,-87.01278 z m -29.6726,110.95344 c 0.6308,3.12658 1.3652,6.15387 2.18539,9.07127 h 54.26232 c 0.8156,-2.90571 1.56372,-5.93167 2.22984,-9.07127 z m 5.52576,19.27686 c 1.14137,3.04998 2.35587,5.95205 3.61166,8.693 h 40.53448 c 1.20535,-2.72915 2.37909,-5.62961 3.49384,-8.693 z m 8.19226,17.7648 c 7.99099,14.44221 15.95458,22.57072 15.95458,22.57072 0,0 7.70809,-7.79051 15.58717,-22.57072 z"
         id="path5832"
         inkscape:connector-curvature="0" />
      <path
         style="fill:#d80000;fill-opacity:1;stroke:none;stroke-width:0.25382003px;stroke-linecap:butt;stroke-linejoin:miter;stroke-opacity:1"
         d="m -455.99199,-375.73765 c -46.2705,2.62046 -77.85158,41.2011 -77.85158,41.2011 -4.27852,4.80864 -7.97094,9.76196 -11.16263,14.73914 h 74.40476 c 7.7799,-15.04751 14.92487,-34.79879 14.60945,-55.94024 z m -94.48726,65.38981 c -1.59206,3.05287 -3.01844,6.08669 -4.28552,9.07127 h 72.94696 c 1.81762,-2.57948 3.83678,-5.6293 5.92109,-9.07127 z m -8.12353,19.27686 c -0.98934,2.99942 -1.8335,5.90936 -2.54972,8.693 h 61.35956 v 0.17467 c 3.20408,-2.69858 6.41335,-5.64919 9.5989,-8.86767 z m -4.55941,17.7648 c -2.26395,12.17691 -2.05311,20.32486 -2.05311,20.32486 0,0 25.1224,-1.11196 53.63962,-20.32486 z"
         id="path5834"
         inkscape:connector-curvature="0" />
      <path
         style="fill:#d80000;fill-opacity:1;stroke:none;stroke-width:0.24913815px;stroke-linecap:butt;stroke-linejoin:miter;stroke-opacity:1"
         d="m -699.62984,-374.19615 c -1.67042,21.14315 4.96367,40.1809 12.44008,54.39876 h 73.90556 c -2.3987,-3.69732 -5.07893,-7.43802 -8.07651,-11.19156 1.79571,1.02516 -32.61989,-37.86055 -78.26913,-43.2072 z m 17.91881,63.8483 c 2.32292,3.65596 4.54536,6.76706 6.45387,9.27438 l 76.05737,-0.18898 c -1.32603,-3.0225 -6.79398,-5.9317 -8.48992,-9.0854 z m 15.1815,19.47995 c 2.90867,3.06981 5.90639,5.8924 8.95139,8.49044 h 60.9012 c -0.70052,-2.70441 -1.16132,-5.73267 -2.15779,-8.67942 z m 21.0442,17.56172 c 26.34265,17.32276 52.21696,20.06958 52.21696,20.06958 0,0 0.70989,-7.83477 -1.43557,-20.06958 z"
         id="path5836"
         inkscape:connector-curvature="0"
         sodipodi:nodetypes="ccccccccccccccccccc" />
    </g>
  </g>
</svg>
