<?xml version="1.0" encoding="UTF-8" standalone="no"?>
<!-- Created with Inkscape (http://www.inkscape.org/) -->

<svg
   xmlns:dc="http://purl.org/dc/elements/1.1/"
   xmlns:cc="http://creativecommons.org/ns#"
   xmlns:rdf="http://www.w3.org/1999/02/22-rdf-syntax-ns#"
   xmlns:svg="http://www.w3.org/2000/svg"
   xmlns="http://www.w3.org/2000/svg"
   xmlns:sodipodi="http://sodipodi.sourceforge.net/DTD/sodipodi-0.dtd"
   xmlns:inkscape="http://www.inkscape.org/namespaces/inkscape"
   width="210mm"
   height="297mm"
   viewBox="0 0 210 297"
   version="1.1"
   id="svg8"
   inkscape:version="0.92.2 (5c3e80d, 2017-08-06)"
   sodipodi:docname="dr.pink0.9.svg">
  <defs
     id="defs2" />
  <sodipodi:namedview
     id="base"
     pagecolor="#ffffff"
     bordercolor="#666666"
     borderopacity="1.0"
     inkscape:pageopacity="0.0"
     inkscape:pageshadow="2"
     inkscape:zoom="0.125"
     inkscape:cx="-2028.5712"
     inkscape:cy="-1403.0466"
     inkscape:document-units="px"
     inkscape:current-layer="layer1"
     showgrid="false"
     showborder="false"
     inkscape:window-width="1920"
     inkscape:window-height="1017"
     inkscape:window-x="1912"
     inkscape:window-y="-8"
     inkscape:window-maximized="1"
     showguides="true"
     inkscape:guide-bbox="true" />
  <metadata
     id="metadata5">
    <rdf:RDF>
      <cc:Work
         rdf:about="">
        <dc:format>image/svg+xml</dc:format>
        <dc:type
           rdf:resource="http://purl.org/dc/dcmitype/StillImage" />
        <dc:title></dc:title>
      </cc:Work>
    </rdf:RDF>
  </metadata>
  <g
     inkscape:label="Layer 1"
     inkscape:groupmode="layer"
     id="layer1">
    <g
       id="g4632"
       transform="translate(-2007.3559,612.60651)">
      <circle
         id="circle4581"
         cx="289.90775"
         cy="281.50296"
         r="123.59821"
         style="fill:#fb92a8;fill-opacity:1;stroke:none;stroke-width:0.26458332;stroke-opacity:1" />
      <g
         id="g4597"
         transform="translate(406.70238,230.56547)">
        <g
           transform="matrix(1.1586207,0,0,1.1172414,-458.02895,-13.223911)"
           id="g4591">
          <g
             id="g4585"
             transform="translate(0,2.2678568)">
            <circle
               id="circle4583"
               cx="221.11609"
               cy="39.598213"
               r="54.806545"
               style="fill:#fb92a8;fill-opacity:1;stroke:none;stroke-width:0.11732288;stroke-opacity:1" />
          </g>
          <g
             id="g4589"
             transform="matrix(1,0,0,1.0190476,-4.8807691e-8,0.77205196)">
            <ellipse
               ry="39.687496"
               rx="41.577377"
               style="fill:#ffffff;fill-opacity:1;stroke:none;stroke-width:0.08695723;stroke-opacity:1"
               cy="38.842266"
               cx="221.49406"
               id="ellipse4587" />
          </g>
        </g>
        <circle
           r="19.654762"
           cy="33.172619"
           cx="-202.59525"
           id="circle4593"
           style="fill:#000000;fill-opacity:1;stroke:none;stroke-width:0.26458332;stroke-opacity:1" />
        <circle
           r="6.8035712"
           cy="27.880955"
           cx="-195.03572"
           id="circle4595"
           style="fill:#fffff9;fill-opacity:1;stroke:none;stroke-width:0.26458332;stroke-opacity:1" />
      </g>
      <g
         id="g4613"
         transform="translate(572.25595,227.54166)">
        <g
           id="g4607"
           transform="matrix(1.1586207,0,0,1.1172414,-458.02895,-13.223911)">
          <g
             transform="translate(0,2.2678568)"
             id="g4601">
            <circle
               style="fill:#fb92a8;fill-opacity:1;stroke:none;stroke-width:0.11732288;stroke-opacity:1"
               r="54.806545"
               cy="39.598213"
               cx="221.11609"
               id="circle4599" />
          </g>
          <g
             transform="matrix(1,0,0,1.0190476,-4.8807691e-8,0.77205196)"
             id="g4605">
            <ellipse
               id="ellipse4603"
               cx="221.49406"
               cy="38.842266"
               style="fill:#ffffff;fill-opacity:1;stroke:none;stroke-width:0.08695723;stroke-opacity:1"
               rx="41.577377"
               ry="39.687496" />
          </g>
        </g>
        <circle
           style="fill:#000000;fill-opacity:1;stroke:none;stroke-width:0.26458332;stroke-opacity:1"
           id="circle4609"
           cx="-202.59525"
           cy="33.172619"
           r="19.654762" />
        <circle
           style="fill:#fffff9;fill-opacity:1;stroke:none;stroke-width:0.26458332;stroke-opacity:1"
           id="circle4611"
           cx="-195.03572"
           cy="27.880955"
           r="6.8035712" />
      </g>
    </g>
    <g
       id="g4698"
       transform="translate(-1300.6404,515.27811)">
      <circle
         id="circle4641"
         cx="-57.682217"
         cy="378.83136"
         r="123.59821"
         style="fill:#fb92a8;fill-opacity:1;stroke:none;stroke-width:0.26458332;stroke-opacity:1" />
      <g
         id="g4657"
         transform="translate(59.112422,327.89385)">
        <g
           transform="matrix(1.1586207,0,0,1.1172414,-458.02895,-13.223911)"
           id="g4651">
          <g
             id="g4645"
             transform="translate(0,2.2678568)">
            <circle
               id="circle4643"
               cx="221.11609"
               cy="39.598213"
               r="54.806545"
               style="fill:#fb92a8;fill-opacity:1;stroke:none;stroke-width:0.11732288;stroke-opacity:1" />
          </g>
          <g
             id="g4649"
             transform="matrix(1,0,0,1.0190476,-4.8807691e-8,0.77205196)">
            <ellipse
               ry="39.687496"
               rx="41.577377"
               style="fill:#ffffff;fill-opacity:1;stroke:none;stroke-width:0.08695723;stroke-opacity:1"
               cy="38.842266"
               cx="221.49406"
               id="ellipse4647" />
          </g>
        </g>
        <circle
           r="19.654762"
           cy="33.172619"
           cx="-202.59525"
           id="circle4653"
           style="fill:#000000;fill-opacity:1;stroke:none;stroke-width:0.26458332;stroke-opacity:1" />
        <circle
           r="6.8035712"
           cy="27.880955"
           cx="-195.03572"
           id="circle4655"
           style="fill:#fffff9;fill-opacity:1;stroke:none;stroke-width:0.26458332;stroke-opacity:1" />
      </g>
      <g
         id="g4673"
         transform="translate(224.66599,324.87004)">
        <g
           id="g4667"
           transform="matrix(1.1586207,0,0,1.1172414,-458.02895,-13.223911)">
          <g
             transform="translate(0,2.2678568)"
             id="g4661">
            <circle
               style="fill:#fb92a8;fill-opacity:1;stroke:none;stroke-width:0.11732288;stroke-opacity:1"
               r="54.806545"
               cy="39.598213"
               cx="221.11609"
               id="circle4659" />
          </g>
          <g
             transform="matrix(1,0,0,1.0190476,-4.8807691e-8,0.77205196)"
             id="g4665">
            <ellipse
               id="ellipse4663"
               cx="221.49406"
               cy="38.842266"
               style="fill:#ffffff;fill-opacity:1;stroke:none;stroke-width:0.08695723;stroke-opacity:1"
               rx="41.577377"
               ry="39.687496" />
          </g>
        </g>
        <circle
           style="fill:#000000;fill-opacity:1;stroke:none;stroke-width:0.26458332;stroke-opacity:1"
           id="circle4669"
           cx="-202.59525"
           cy="33.172619"
           r="19.654762" />
        <circle
           style="fill:#fffff9;fill-opacity:1;stroke:none;stroke-width:0.26458332;stroke-opacity:1"
           id="circle4671"
           cx="-195.03572"
           cy="27.880955"
           r="6.8035712" />
      </g>
      <path
         style="fill:#e133a8;fill-opacity:1;stroke:none;stroke-width:0.24400927;stroke-opacity:1"
         d="m -85.565776,293.41176 c -4.7486,6.50951 -12.05288,8.85812 -20.558004,8.85812 -8.50512,-10e-6 -32.92553,-6.42225 -34.31297,-9.71781 0,0 21.61139,-8.7549 35.83989,-8.282 18.649284,0.61981 21.361324,5.94733 19.031084,9.14169 z"
         id="path4675"
         inkscape:connector-curvature="0"
         sodipodi:nodetypes="sscss"
         inkscape:transform-center-x="-3.7417734" />
      <path
         sodipodi:nodetypes="sscss"
         inkscape:connector-curvature="0"
         id="path4677"
         d="m -29.045664,292.66919 c 4.97696,-6.82255 12.632488,-9.28409 21.5466083,-9.28409 8.91412,0 34.5088807,6.73108 35.9630387,10.18512 0,0 -22.6506527,9.17591 -37.5633847,8.68028 -19.5460973,-0.64963 -22.3885623,-6.23334 -19.9462623,-9.58131 z"
         style="fill:#e133a8;fill-opacity:1;stroke:none;stroke-width:0.25574335;stroke-opacity:1" />
    </g>
    <g
       id="g4827"
       transform="translate(-615.14754,503.74936)">
      <circle
         id="circle4700"
         cx="-396.95059"
         cy="390.36011"
         r="123.59821"
         style="fill:#fb92a8;fill-opacity:1;stroke:none;stroke-width:0.26458332;stroke-opacity:1" />
      <g
         id="g4716"
         transform="translate(-280.15595,339.42262)">
        <g
           transform="matrix(1.1586207,0,0,1.1172414,-458.02895,-13.223911)"
           id="g4710">
          <g
             id="g4704"
             transform="translate(0,2.2678568)">
            <circle
               id="circle4702"
               cx="221.11609"
               cy="39.598213"
               r="54.806545"
               style="fill:#fb92a8;fill-opacity:1;stroke:none;stroke-width:0.11732288;stroke-opacity:1" />
          </g>
          <g
             id="g4708"
             transform="matrix(1,0,0,1.0190476,-4.8807691e-8,0.77205196)">
            <ellipse
               ry="39.687496"
               rx="41.577377"
               style="fill:#ffffff;fill-opacity:1;stroke:none;stroke-width:0.08695723;stroke-opacity:1"
               cy="38.842266"
               cx="221.49406"
               id="ellipse4706" />
          </g>
        </g>
        <circle
           r="19.654762"
           cy="33.172619"
           cx="-202.59525"
           id="circle4712"
           style="fill:#000000;fill-opacity:1;stroke:none;stroke-width:0.26458332;stroke-opacity:1" />
        <circle
           r="6.8035712"
           cy="27.880955"
           cx="-195.03572"
           id="circle4714"
           style="fill:#fffff9;fill-opacity:1;stroke:none;stroke-width:0.26458332;stroke-opacity:1" />
      </g>
      <g
         id="g4732"
         transform="translate(-114.60238,336.39881)">
        <g
           id="g4726"
           transform="matrix(1.1586207,0,0,1.1172414,-458.02895,-13.223911)">
          <g
             transform="translate(0,2.2678568)"
             id="g4720">
            <circle
               style="fill:#fb92a8;fill-opacity:1;stroke:none;stroke-width:0.11732288;stroke-opacity:1"
               r="54.806545"
               cy="39.598213"
               cx="221.11609"
               id="circle4718" />
          </g>
          <g
             transform="matrix(1,0,0,1.0190476,-4.8807691e-8,0.77205196)"
             id="g4724">
            <ellipse
               id="ellipse4722"
               cx="221.49406"
               cy="38.842266"
               style="fill:#ffffff;fill-opacity:1;stroke:none;stroke-width:0.08695723;stroke-opacity:1"
               rx="41.577377"
               ry="39.687496" />
          </g>
        </g>
        <circle
           style="fill:#000000;fill-opacity:1;stroke:none;stroke-width:0.26458332;stroke-opacity:1"
           id="circle4728"
           cx="-202.59525"
           cy="33.172619"
           r="19.654762" />
        <circle
           style="fill:#fffff9;fill-opacity:1;stroke:none;stroke-width:0.26458332;stroke-opacity:1"
           id="circle4730"
           cx="-195.03572"
           cy="27.880955"
           r="6.8035712" />
      </g>
      <path
         inkscape:transform-center-y="2.747246"
         style="fill:#e133a8;fill-opacity:1;stroke:none;stroke-width:0.2714864;stroke-opacity:1"
         d="m -421.02502,311.56834 c -7.05699,5.52494 -15.56464,5.80145 -24.6334,3.18975 -9.06874,-2.61172 -33.14051,-17.00011 -33.61054,-20.96146 0,0 25.72497,-2.75554 40.75156,2.12096 19.69532,6.39164 20.9554,12.93954 17.49238,15.65075 z"
         id="path4734"
         inkscape:connector-curvature="0"
         sodipodi:nodetypes="sscss"
         inkscape:transform-center-x="-4.4493972" />
      <path
         sodipodi:nodetypes="sscss"
         inkscape:connector-curvature="0"
         id="path4736"
         d="m -369.36446,314.74525 c 2.88541,-9.00379 9.75881,-14.17949 18.63109,-17.11113 8.87227,-2.93163 36.38736,-4.08088 38.88175,-0.82945 0,0 -19.76274,17.35741 -34.75572,21.72666 -19.65127,5.72677 -24.17305,0.63229 -22.75712,-3.78608 z"
         style="fill:#e133a8;fill-opacity:1;stroke:none;stroke-width:0.27715182;stroke-opacity:1" />
    </g>
    <g
       id="g4977"
       transform="translate(0.74835467)" />
    <g
       id="g4806"
       transform="translate(2.6192383,849.15121)">
      <circle
         id="circle4743"
         cx="-630.54773"
         cy="44.95826"
         r="123.59821"
         style="fill:#fb92a8;fill-opacity:1;stroke:none;stroke-width:0.26458332;stroke-opacity:1" />
      <g
         id="g4759"
         transform="translate(-513.75308,-5.9792424)">
        <g
           transform="matrix(1.1586207,0,0,1.1172414,-458.02895,-13.223911)"
           id="g4753">
          <g
             id="g4747"
             transform="translate(0,2.2678568)">
            <circle
               id="circle4745"
               cx="221.11609"
               cy="39.598213"
               r="54.806545"
               style="fill:#fb92a8;fill-opacity:1;stroke:none;stroke-width:0.11732288;stroke-opacity:1" />
          </g>
          <g
             id="g4751"
             transform="matrix(1,0,0,1.0190476,-4.8807691e-8,0.77205196)">
            <ellipse
               ry="39.687496"
               rx="41.577377"
               style="fill:#ffffff;fill-opacity:1;stroke:none;stroke-width:0.08695723;stroke-opacity:1"
               cy="38.842266"
               cx="221.49406"
               id="ellipse4749" />
          </g>
        </g>
        <circle
           r="19.654762"
           cy="33.172619"
           cx="-202.59525"
           id="circle4755"
           style="fill:#000000;fill-opacity:1;stroke:none;stroke-width:0.26458332;stroke-opacity:1" />
        <circle
           r="6.8035712"
           cy="27.880955"
           cx="-195.03572"
           id="circle4757"
           style="fill:#fffff9;fill-opacity:1;stroke:none;stroke-width:0.26458332;stroke-opacity:1" />
      </g>
      <g
         id="g4775"
         transform="translate(-348.19951,-9.0030516)">
        <g
           id="g4769"
           transform="matrix(1.1586207,0,0,1.1172414,-458.02895,-13.223911)">
          <g
             transform="translate(0,2.2678568)"
             id="g4763">
            <circle
               style="fill:#fb92a8;fill-opacity:1;stroke:none;stroke-width:0.11732288;stroke-opacity:1"
               r="54.806545"
               cy="39.598213"
               cx="221.11609"
               id="circle4761" />
          </g>
          <g
             transform="matrix(1,0,0,1.0190476,-4.8807691e-8,0.77205196)"
             id="g4767">
            <ellipse
               id="ellipse4765"
               cx="221.49406"
               cy="38.842266"
               style="fill:#ffffff;fill-opacity:1;stroke:none;stroke-width:0.08695723;stroke-opacity:1"
               rx="41.577377"
               ry="39.687496" />
          </g>
        </g>
        <circle
           style="fill:#000000;fill-opacity:1;stroke:none;stroke-width:0.26458332;stroke-opacity:1"
           id="circle4771"
           cx="-202.59525"
           cy="33.172619"
           r="19.654762" />
        <circle
           style="fill:#fffff9;fill-opacity:1;stroke:none;stroke-width:0.26458332;stroke-opacity:1"
           id="circle4773"
           cx="-195.03572"
           cy="27.880955"
           r="6.8035712" />
      </g>
      <path
         style="fill:#e133a8;fill-opacity:1;stroke:none;stroke-width:0.24400927;stroke-opacity:1"
         d="m -658.43128,-40.461334 c -4.7486,6.509513 -12.05288,8.858119 -20.558,8.858115 -8.50512,-2e-6 -32.92553,-6.422245 -34.31297,-9.717802 0,0 21.61139,-8.754899 35.83989,-8.282007 18.64928,0.619817 21.36132,5.947332 19.03108,9.141694 z"
         id="path4777"
         inkscape:connector-curvature="0"
         sodipodi:nodetypes="sscss"
         inkscape:transform-center-x="-3.7417734" />
      <path
         sodipodi:nodetypes="sscss"
         inkscape:connector-curvature="0"
         id="path4779"
         d="m -601.91117,-41.203904 c 4.97696,-6.822548 12.63249,-9.284095 21.54661,-9.284091 8.91412,2e-6 34.50888,6.731083 35.96304,10.185119 0,0 -22.65065,9.175911 -37.56339,8.680278 -19.54609,-0.649624 -22.38856,-6.233332 -19.94626,-9.581306 z"
         style="fill:#e133a8;fill-opacity:1;stroke:none;stroke-width:0.25574335;stroke-opacity:1" />
      <path
         style="fill:#e133a8;fill-opacity:1;stroke:none;stroke-width:0.26458332;stroke-opacity:1"
         d="m -565.38196,125.62678 c -7.79998,9.63843 -29.48438,22.45064 -65.85521,22.45064 -36.37083,0 -58.11466,-12.76443 -65.85521,-22.45064 -21.96042,-27.480402 37.1573,-18.74647 66.64896,-17.95272 36.35766,0.97854 90.72604,-13.761012 65.06146,17.95272 z"
         id="path4781"
         inkscape:connector-curvature="0"
         sodipodi:nodetypes="sssss" />
      <path
         sodipodi:nodetypes="sssss"
         inkscape:connector-curvature="0"
         id="path4783"
         d="m -590.14033,115.73917 c -6.85398,2.59474 -14.54668,10.07469 -41.02998,10.07469 -26.48331,0 -29.23587,-4.37114 -36.16567,-6.58839 -62.3884,-19.961692 17.70153,-11.79311 39.17578,-11.36758 26.47372,0.52459 89.26088,-11.517292 38.01987,7.88128 z"
         style="fill:#ffffff;fill-opacity:1;stroke:none;stroke-width:0.16530824;stroke-opacity:1" />
    </g>
    <g
       id="g5108"
       transform="translate(579.96666,838.2)">
      <circle
         style="fill:#fb92a8;fill-opacity:1;stroke:none;stroke-width:0.26458332;stroke-opacity:1"
         r="123.59821"
         cy="51.693451"
         cx="-117.55059"
         id="path4514" />
      <g
         transform="translate(-0.75595187,0.75594971)"
         id="g4563">
        <g
           id="g4532"
           transform="matrix(1.1586207,0,0,1.1172414,-458.02895,-13.223911)">
          <g
             transform="translate(0,2.2678568)"
             id="g4524">
            <circle
               style="fill:#fb92a8;fill-opacity:1;stroke:none;stroke-width:0.11732288;stroke-opacity:1"
               r="54.806545"
               cy="39.598213"
               cx="221.11609"
               id="circle4516" />
          </g>
          <g
             transform="matrix(1,0,0,1.0190476,-4.8807691e-8,0.77205196)"
             id="g4521">
            <ellipse
               id="circle4518"
               cx="221.49406"
               cy="38.842266"
               style="fill:#ffffff;fill-opacity:1;stroke:none;stroke-width:0.08695723;stroke-opacity:1"
               rx="41.577377"
               ry="39.687496" />
          </g>
        </g>
        <circle
           style="fill:#000000;fill-opacity:1;stroke:none;stroke-width:0.26458332;stroke-opacity:1"
           id="path4550"
           cx="-202.59525"
           cy="33.172619"
           r="19.654762" />
        <circle
           style="fill:#fffff9;fill-opacity:1;stroke:none;stroke-width:0.26458332;stroke-opacity:1"
           id="path4554"
           cx="-195.03572"
           cy="27.880955"
           r="6.8035712" />
      </g>
      <g
         transform="translate(164.79762,-2.2678595)"
         id="g4579">
        <g
           transform="matrix(1.1586207,0,0,1.1172414,-458.02895,-13.223911)"
           id="g4573">
          <g
             id="g4567"
             transform="translate(0,2.2678568)">
            <circle
               id="circle4565"
               cx="221.11609"
               cy="39.598213"
               r="54.806545"
               style="fill:#fb92a8;fill-opacity:1;stroke:none;stroke-width:0.11732288;stroke-opacity:1" />
          </g>
          <g
             id="g4571"
             transform="matrix(1,0,0,1.0190476,-4.8807691e-8,0.77205196)">
            <ellipse
               ry="39.687496"
               rx="41.577377"
               style="fill:#ffffff;fill-opacity:1;stroke:none;stroke-width:0.08695723;stroke-opacity:1"
               cy="38.842266"
               cx="221.49406"
               id="ellipse4569" />
          </g>
        </g>
        <circle
           r="19.654762"
           cy="33.172619"
           cx="-202.59525"
           id="circle4575"
           style="fill:#000000;fill-opacity:1;stroke:none;stroke-width:0.26458332;stroke-opacity:1" />
        <circle
           r="6.8035712"
           cy="27.880955"
           cx="-195.03572"
           id="circle4577"
           style="fill:#fffff9;fill-opacity:1;stroke:none;stroke-width:0.26458332;stroke-opacity:1" />
      </g>
      <path
         inkscape:transform-center-y="3.0582001"
         inkscape:transform-center-x="-6.1070354"
         sodipodi:nodetypes="sscss"
         inkscape:connector-curvature="0"
         id="path4636"
         d="m -146.97366,-25.883233 c -9.01883,6.501278 -20.82634,6.989749 -33.83813,4.164598 -13.01179,-2.82515 -48.6415,-18.907199 -49.87609,-23.458013 0,0 35.42186,-3.686598 57.06231,1.626568 28.3641,6.963958 31.07764,14.476523 26.65191,17.666847 z"
         style="fill:#e133a8;fill-opacity:1;stroke:none;stroke-width:0.34405819;stroke-opacity:1" />
      <path
         style="fill:#e133a8;fill-opacity:1;stroke:none;stroke-width:0.32319555;stroke-opacity:1"
         d="m -87.916333,-27.603886 c 6.132848,-8.421508 17.044742,-12.994478 30.278093,-15.328819 13.233352,-2.334343 52.4685561,-2.014097 55.2629986,1.208812 0,0 -31.9370006,15.505069 -54.1667376,18.893163 -29.136485,4.440772 -34.383872,-0.640538 -31.374354,-4.773156 z"
         id="path4639"
         inkscape:connector-curvature="0"
         sodipodi:nodetypes="sscss" />
      <g
         transform="matrix(-0.66688206,-0.01551356,0.01256214,-0.82356308,-197.12497,219.05359)"
         id="g4982">
        <path
           transform="translate(0.74835467)"
           sodipodi:nodetypes="sssss"
           inkscape:connector-curvature="0"
           id="path4738"
           d="m -59.83433,129.32322 c -6.882473,8.21213 -26.016171,19.12838 -58.10874,19.12838 -32.09258,0 -51.27871,-10.87554 -58.10875,-19.12838 -19.37725,-23.41383 34.10945,-8.9294 60.13204,-8.25311 32.080954,0.83373 78.73114,-18.7676 56.08545,8.25311 z"
           style="fill:#e133a8;fill-opacity:1;stroke:none;stroke-width:0.22941025;stroke-opacity:1" />
        <path
           sodipodi:nodetypes="sssss"
           inkscape:connector-curvature="0"
           id="path4741"
           d="m -72.809013,123.57521 c -6.853981,2.59474 -17.298726,11.4116 -43.782017,11.4116 -26.48331,0 -33.20798,-4.61759 -40.13778,-6.83484 -62.3884,-19.96169 16.60212,-9.48708 42.02943,-9.13601 26.481184,0.36562 93.13138,-14.83932 41.890367,4.55925 z"
           style="fill:#ffffff;fill-opacity:1;stroke:none;stroke-width:0.16530824;stroke-opacity:1" />
      </g>
      <path
         inkscape:transform-center-y="11.497329"
         inkscape:transform-center-x="-54.200901"
         sodipodi:nodetypes="sssss"
         inkscape:connector-curvature="0"
         id="path4829"
         d="m 1.1728599,115.68233 c -18.7080889,2.31101 -30.9547069,1.1058 -45.8476839,-4.40996 -14.892962,-5.51577 -15.447037,-9.97123 -12.611509,-19.080572 2.835538,-9.109341 5.001372,-11.637666 19.894341,-6.121896 14.892973,5.515768 47.3282889,28.529898 38.5648519,29.612428 z"
         style="fill:#9a32bb;fill-opacity:1;stroke:#6b0082;stroke-width:0.27796903;stroke-opacity:1" />
      <path
         style="fill:#9a32bb;fill-opacity:1;stroke:#6b0082;stroke-width:0.28254673;stroke-opacity:1"
         d="m -233.688,117.40664 c 12.65708,-15.46542 22.79103,-23.697057 37.86921,-30.887741 15.07815,-7.19068 18.52955,-4.499187 22.56788,3.942927 4.03834,8.44212 4.11051,11.806504 -10.96763,18.997194 -15.07817,7.19068 -55.39843,15.19208 -49.46946,7.94762 z"
         id="path4832"
         inkscape:connector-curvature="0"
         sodipodi:nodetypes="sssss" />
    </g>
    <g
       id="g4903"
       transform="translate(203.55247,815.47525)">
      <circle
         id="circle4834"
         cx="-470.77399"
         cy="78.634216"
         r="123.59821"
         style="fill:#fb92a8;fill-opacity:1;stroke:none;stroke-width:0.26458332;stroke-opacity:1" />
      <g
         id="g4850"
         transform="translate(-353.97936,27.696718)">
        <g
           transform="matrix(1.1586207,0,0,1.1172414,-458.02895,-13.223911)"
           id="g4844">
          <g
             id="g4838"
             transform="translate(0,2.2678568)">
            <circle
               id="circle4836"
               cx="221.11609"
               cy="39.598213"
               r="54.806545"
               style="fill:#fb92a8;fill-opacity:1;stroke:none;stroke-width:0.11732288;stroke-opacity:1" />
          </g>
          <g
             id="g4842"
             transform="matrix(1,0,0,1.0190476,-4.8807691e-8,0.77205196)">
            <ellipse
               ry="39.687496"
               rx="41.577377"
               style="fill:#ffffff;fill-opacity:1;stroke:none;stroke-width:0.08695723;stroke-opacity:1"
               cy="38.842266"
               cx="221.49406"
               id="ellipse4840" />
          </g>
        </g>
        <circle
           r="19.654762"
           cy="33.172619"
           cx="-202.59525"
           id="circle4846"
           style="fill:#000000;fill-opacity:1;stroke:none;stroke-width:0.26458332;stroke-opacity:1" />
        <circle
           r="6.8035712"
           cy="27.880955"
           cx="-195.03572"
           id="circle4848"
           style="fill:#fffff9;fill-opacity:1;stroke:none;stroke-width:0.26458332;stroke-opacity:1" />
      </g>
      <g
         id="g4866"
         transform="translate(-188.42579,24.672909)">
        <g
           id="g4860"
           transform="matrix(1.1586207,0,0,1.1172414,-458.02895,-13.223911)">
          <g
             transform="translate(0,2.2678568)"
             id="g4854">
            <circle
               style="fill:#fb92a8;fill-opacity:1;stroke:none;stroke-width:0.11732288;stroke-opacity:1"
               r="54.806545"
               cy="39.598213"
               cx="221.11609"
               id="circle4852" />
          </g>
          <g
             transform="matrix(1,0,0,1.0190476,-4.8807691e-8,0.77205196)"
             id="g4858">
            <ellipse
               id="ellipse4856"
               cx="221.49406"
               cy="38.842266"
               style="fill:#ffffff;fill-opacity:1;stroke:none;stroke-width:0.08695723;stroke-opacity:1"
               rx="41.577377"
               ry="39.687496" />
          </g>
        </g>
        <circle
           style="fill:#000000;fill-opacity:1;stroke:none;stroke-width:0.26458332;stroke-opacity:1"
           id="circle4862"
           cx="-202.59525"
           cy="33.172619"
           r="19.654762" />
        <circle
           style="fill:#fffff9;fill-opacity:1;stroke:none;stroke-width:0.26458332;stroke-opacity:1"
           id="circle4864"
           cx="-195.03572"
           cy="27.880955"
           r="6.8035712" />
      </g>
      <path
         style="fill:#e133a8;fill-opacity:1;stroke:none;stroke-width:0.24400927;stroke-opacity:1"
         d="m -498.65756,-6.7853737 c -4.7486,6.509513 -12.05288,8.858119 -20.558,8.858115 -8.50512,-2e-6 -32.92553,-6.422245 -34.31297,-9.717802 0,0 21.61139,-8.7548993 35.83989,-8.2820073 18.64928,0.619817 21.36132,5.9473323 19.03108,9.1416943 z"
         id="path4868"
         inkscape:connector-curvature="0"
         sodipodi:nodetypes="sscss"
         inkscape:transform-center-x="-3.7417734" />
      <path
         sodipodi:nodetypes="sscss"
         inkscape:connector-curvature="0"
         id="path4870"
         d="m -442.13744,-7.5279437 c 4.97696,-6.8225483 12.63248,-9.2840953 21.5466,-9.2840913 8.91412,2e-6 34.50888,6.731083 35.96304,10.1851193 0,0 -22.65065,9.175911 -37.56338,8.680278 -19.5461,-0.649624 -22.38856,-6.233332 -19.94626,-9.581306 z"
         style="fill:#e133a8;fill-opacity:1;stroke:none;stroke-width:0.25574335;stroke-opacity:1" />
      <path
         style="fill:#e133a8;fill-opacity:1;stroke:none;stroke-width:0.26458332;stroke-opacity:1"
         d="m -405.60824,159.30274 c -7.79997,9.63843 -29.48438,22.45064 -65.85521,22.45064 -36.37083,0 -58.11466,-12.76443 -65.85521,-22.45064 -21.96042,-27.4804 37.1573,-18.74647 66.64896,-17.95272 36.35766,0.97854 90.72604,-13.76101 65.06146,17.95272 z"
         id="path4872"
         inkscape:connector-curvature="0"
         sodipodi:nodetypes="sssss" />
      <path
         sodipodi:nodetypes="sssss"
         inkscape:connector-curvature="0"
         id="path4874"
         d="m -430.36661,149.41513 c -6.85398,2.59474 -14.54668,10.07469 -41.02998,10.07469 -26.48331,0 -29.23587,-4.37114 -36.16567,-6.58839 -62.3884,-19.96169 17.70153,-11.79311 39.17578,-11.36758 26.47372,0.52459 89.26089,-11.51729 38.01987,7.88128 z"
         style="fill:#ffffff;fill-opacity:1;stroke:none;stroke-width:0.16530824;stroke-opacity:1" />
      <path
         style="fill:#9a32bb;fill-opacity:1;stroke:#6b0082;stroke-width:0.21622317;stroke-opacity:1"
         d="m -410.16613,117.46257 c -18.1558,1.44088 -30.04087,0.68945 -44.49418,-2.74954 -14.4533,-3.439 -14.99102,-6.21691 -12.2392,-11.89644 2.75183,-5.679535 4.85372,-7.255907 19.30703,-3.816909 14.4533,3.438999 45.93107,17.787949 37.42635,18.462889 z"
         id="path4876"
         inkscape:connector-curvature="0"
         sodipodi:nodetypes="sssss"
         inkscape:transform-center-x="-52.60079"
         inkscape:transform-center-y="7.1684087" />
      <path
         sodipodi:nodetypes="sssss"
         inkscape:connector-curvature="0"
         id="path4878"
         d="m -535.06386,118.72605 c 12.8989,-9.31832 23.22647,-14.2781 38.59271,-18.61067 15.36622,-4.332574 18.88357,-2.710879 22.99905,2.37571 4.11549,5.0866 4.18904,7.11373 -11.17718,11.4463 -15.36623,4.33258 -56.45683,9.15363 -50.41458,4.78866 z"
         style="fill:#9a32bb;fill-opacity:1;stroke:#6b0082;stroke-width:0.22140519;stroke-opacity:1" />
    </g>
    <g
       id="g4974"
       transform="translate(543.30549,880.51601)">
      <circle
         id="circle4905"
         cx="-446.16309"
         cy="13.593451"
         r="123.59821"
         style="fill:#fb92a8;fill-opacity:1;stroke:none;stroke-width:0.26458332;stroke-opacity:1" />
      <g
         id="g4921"
         transform="translate(-329.36845,-37.34405)">
        <g
           transform="matrix(1.1586207,0,0,1.1172414,-458.02895,-13.223911)"
           id="g4915">
          <g
             id="g4909"
             transform="translate(0,2.2678568)">
            <circle
               id="circle4907"
               cx="221.11609"
               cy="39.598213"
               r="54.806545"
               style="fill:#fb92a8;fill-opacity:1;stroke:none;stroke-width:0.11732288;stroke-opacity:1" />
          </g>
          <g
             id="g4913"
             transform="matrix(1,0,0,1.0190476,-4.8807691e-8,0.77205196)">
            <ellipse
               ry="39.687496"
               rx="41.577377"
               style="fill:#ffffff;fill-opacity:1;stroke:none;stroke-width:0.08695723;stroke-opacity:1"
               cy="38.842266"
               cx="221.49406"
               id="ellipse4911" />
          </g>
        </g>
        <circle
           r="19.654762"
           cy="33.172619"
           cx="-202.59525"
           id="circle4917"
           style="fill:#000000;fill-opacity:1;stroke:none;stroke-width:0.26458332;stroke-opacity:1" />
        <circle
           r="6.8035712"
           cy="27.880955"
           cx="-195.03572"
           id="circle4919"
           style="fill:#fffff9;fill-opacity:1;stroke:none;stroke-width:0.26458332;stroke-opacity:1" />
      </g>
      <g
         id="g4937"
         transform="translate(-163.81488,-40.367859)">
        <g
           id="g4931"
           transform="matrix(1.1586207,0,0,1.1172414,-458.02895,-13.223911)">
          <g
             transform="translate(0,2.2678568)"
             id="g4925">
            <circle
               style="fill:#fb92a8;fill-opacity:1;stroke:none;stroke-width:0.11732288;stroke-opacity:1"
               r="54.806545"
               cy="39.598213"
               cx="221.11609"
               id="circle4923" />
          </g>
          <g
             transform="matrix(1,0,0,1.0190476,-4.8807691e-8,0.77205196)"
             id="g4929">
            <ellipse
               id="ellipse4927"
               cx="221.49406"
               cy="38.842266"
               style="fill:#ffffff;fill-opacity:1;stroke:none;stroke-width:0.08695723;stroke-opacity:1"
               rx="41.577377"
               ry="39.687496" />
          </g>
        </g>
        <circle
           style="fill:#000000;fill-opacity:1;stroke:none;stroke-width:0.26458332;stroke-opacity:1"
           id="circle4933"
           cx="-202.59525"
           cy="33.172619"
           r="19.654762" />
        <circle
           style="fill:#fffff9;fill-opacity:1;stroke:none;stroke-width:0.26458332;stroke-opacity:1"
           id="circle4935"
           cx="-195.03572"
           cy="27.880955"
           r="6.8035712" />
      </g>
      <path
         style="fill:#e133a8;fill-opacity:1;stroke:none;stroke-width:0.24400927;stroke-opacity:1"
         d="m -474.04665,-71.826142 c -4.7486,6.509513 -12.05288,8.858119 -20.558,8.858115 -8.50512,-2e-6 -32.92553,-6.422245 -34.31297,-9.717802 0,0 21.61139,-8.754899 35.83989,-8.282007 18.64928,0.619817 21.36132,5.947332 19.03108,9.141694 z"
         id="path4939"
         inkscape:connector-curvature="0"
         sodipodi:nodetypes="sscss"
         inkscape:transform-center-x="-3.7417734" />
      <path
         sodipodi:nodetypes="sscss"
         inkscape:connector-curvature="0"
         id="path4941"
         d="m -417.52654,-72.568712 c 4.97696,-6.822548 12.63249,-9.284095 21.54661,-9.284091 8.91412,2e-6 34.50888,6.731083 35.96304,10.185119 0,0 -22.65065,9.175911 -37.56339,8.680278 -19.54609,-0.649624 -22.38856,-6.233332 -19.94626,-9.581306 z"
         style="fill:#e133a8;fill-opacity:1;stroke:none;stroke-width:0.25574335;stroke-opacity:1" />
      <path
         style="fill:#e133a8;fill-opacity:1;stroke:none;stroke-width:0.26458332;stroke-opacity:1"
         d="m -380.99733,94.26197 c -7.79998,9.63843 -29.48438,22.45064 -65.85521,22.45064 -36.37083,0 -58.11466,-12.76443 -65.85521,-22.45064 -21.96042,-27.4804 37.1573,-18.74647 66.64896,-17.95272 36.35766,0.97854 90.72604,-13.76101 65.06146,17.95272 z"
         id="path4943"
         inkscape:connector-curvature="0"
         sodipodi:nodetypes="sssss" />
      <path
         sodipodi:nodetypes="sssss"
         inkscape:connector-curvature="0"
         id="path4945"
         d="m -405.7557,84.37436 c -6.85398,2.59474 -14.54668,10.07469 -41.02998,10.07469 -26.48331,0 -29.23587,-4.37114 -36.16567,-6.58839 -62.3884,-19.96169 17.70153,-11.79311 39.17578,-11.36758 26.47372,0.52459 89.26088,-11.51729 38.01987,7.88128 z"
         style="fill:#ffffff;fill-opacity:1;stroke:none;stroke-width:0.16530824;stroke-opacity:1" />
      <path
         style="fill:#9a32bb;fill-opacity:1;stroke:#6b0082;stroke-width:0.27796903;stroke-opacity:1"
         d="m -316.21432,77.20815 c -18.70809,2.31101 -30.95471,1.1058 -45.84768,-4.40996 -14.89297,-5.51577 -15.44704,-9.97123 -12.61151,-19.080569 2.83554,-9.109341 5.00137,-11.637666 19.89434,-6.121896 14.89297,5.515768 47.32829,28.529895 38.56485,29.612425 z"
         id="path4947"
         inkscape:connector-curvature="0"
         sodipodi:nodetypes="sssss"
         inkscape:transform-center-x="-54.200901"
         inkscape:transform-center-y="11.497329" />
      <path
         sodipodi:nodetypes="sssss"
         inkscape:connector-curvature="0"
         id="path4949"
         d="m -570.5324,81.5517 c 12.65708,-15.46542 22.79103,-23.697053 37.86921,-30.887737 15.07815,-7.19068 18.52955,-4.499187 22.56788,3.942927 4.03834,8.44212 4.11051,11.8065 -10.96763,18.99719 -15.07817,7.19068 -55.39843,15.19208 -49.46946,7.94762 z"
         style="fill:#9a32bb;fill-opacity:1;stroke:#6b0082;stroke-width:0.28254673;stroke-opacity:1" />
    </g>
  </g>
</svg>
